# xmcd
#
# Track frame offsets:
#	150
#	18212
#	37167
#	59250
#	80602
#	101457
#	122915
#	145582
#	168652
#	186830
#	205520
#	227862
#
# Disc length: 3288 seconds
# Revision: 0
# Processed by: cddbd v1.5.2PL0 Copyright (c) Steve Scherf et al.
# Submitted via: dBpowerAMP V12.0
#
DISCID=9f0cd60c
DTITLE=Mary Ann Redmond - her I am
DYEAR=2000
DGENRE=Blues
TTITLE0=Cry Love
TTITLE1=Becasue I told you so
TTITLE2=Enemy Lines
TTITLE3=Stop in the name of Love
TTITLE4=Time will do the Talking
TTITLE5=Man I Wanted
TTITLE6=Man on a Mission
TTITLE7=Here I am
TTITLE8=Alone but not Lonely
TTITLE9=(I Know) I'm losing you
TTITLE10=I've been Loving you too Long
TTITLE11=You don't Wanna be with me
EXTD=
EXTT0=
EXTT1=
EXTT2=
EXTT3=
EXTT4=
EXTT5=
EXTT6=
EXTT7=
EXTT8=
EXTT9=
EXTT10=
EXTT11=
PLAYORDER=
